<svg xmlns="http://www.w3.org/2000/svg" width="27.393" height="25.948" viewBox="0 0 27.393 25.948">
  <path id="Path_21429" data-name="Path 21429" d="M-2.49-69.179q-3.437.647-4.831,4.98a13.617,13.617,0,0,0-.7,4.233,3.055,3.055,0,0,0,.025.423q.025.174.075.772H-2.49v10.857H-13.1V-57.923q0-7.371,2.938-11.355A10.906,10.906,0,0,1-2.49-73.86Zm16.784,0a5.584,5.584,0,0,0-4.159,3.088,12.631,12.631,0,0,0-1.419,6.076q0,.3.025.6a3.4,3.4,0,0,0,.125.647h5.429v10.857H3.636V-57.923a22.09,22.09,0,0,1,2.49-10.583,10.054,10.054,0,0,1,8.168-5.354Z" transform="translate(13.099 73.86)" fill="#20994a"/>
</svg>
